<?xml version="1.0" encoding="utf-8"?>
<!-- Generator: Adobe Illustrator 25.2.1, SVG Export Plug-In . SVG Version: 6.00 Build 0)  -->
<svg version="1.1" id="Layer_1" xmlns="http://www.w3.org/2000/svg" xmlns:xlink="http://www.w3.org/1999/xlink" x="0px" y="0px"
	 viewBox="0 0 1366 768" style="enable-background:new 0 0 1366 768;" xml:space="preserve">
<style type="text/css">
	.st0{fill:#F43131;}
	.st1{font-family:'Castellar';}
	.st2{font-size:23.8256px;}
	.st3{letter-spacing:10;}
</style>
<g>
	<g>
		<g>
			<path class="st0" d="M612.5,377.9l-5.6,10.3c-2.4-0.2-4.2-0.3-5.2-0.3c-1.3,0-3.1,0.1-5.4,0.3c-2.3,0.2-4,0.3-5.3,0.3
				c-5.1,0-9.6-0.8-13.5-2.4c-3.9-1.6-7.1-3.7-9.7-6.4c-2.5-2.7-4.4-5.6-5.7-8.9c-1.2-3.2-1.8-6.5-1.8-9.8c0-4.2,0.7-8.2,2.2-11.7
				c1.4-3.6,3.5-6.7,6.1-9.2c2.6-2.6,5.7-4.5,9.2-5.9c3.5-1.4,7.3-2.1,11.3-2.1c1.1,0,1.7,0,2,0c0.3,0,0.9,0,1.8,0.1
				c0.9,0,1.9,0.1,2.8,0.1c3.4,0.2,6,0.3,7.8,0.3c4,0,6.6-0.1,7.9-0.3l0.5,12.7h-0.5l-2.5-8.4c-0.8-0.2-2.1-0.4-4-0.8
				c-1.9-0.3-3.8-0.6-5.6-0.8c-1.8-0.2-3.7-0.3-5.7-0.3c-5.2,0-9.6,1-13.3,3.1c-3.7,2.1-6.4,5-8.3,8.8c-1.9,3.8-2.8,8.2-2.8,13.1
				c0,3.8,0.7,7.4,2,10.6c1.3,3.2,3.2,6,5.6,8.3c2.4,2.3,5.1,4,8.2,5.2c3.1,1.2,6.3,1.8,9.7,1.8c3.4,0,6.5-0.6,9.5-1.7
				c2.9-1.1,5.6-3.2,7.9-6.2L612.5,377.9z M595.4,333.1H591c-4.4,0-8.4,0.7-12,2.2c-3.7,1.4-6.7,3.5-9.3,6c-2.5,2.6-4.4,5.5-5.7,8.9
				c-1.3,3.4-2,7-2,10.8c0,3.5,0.7,6.9,2,10.1c1.3,3.2,3.3,6.1,6,8.6c2.6,2.5,5.8,4.4,9.4,5.8c3.6,1.4,7.7,2.1,12.2,2.1
				c2,0,3.3,0,3.8-0.1V387c-5,0.1-9.5-0.6-13.4-2c-3.9-1.4-7.1-3.4-9.7-6c-2.5-2.5-4.4-5.4-5.7-8.6c-1.2-3.2-1.9-6.5-1.9-9.8
				c0-3.3,0.5-6.5,1.6-9.6c1.1-3.2,2.7-6.1,5-8.7c2.2-2.6,5.2-4.7,8.7-6.3c3.6-1.6,7.8-2.4,12.6-2.4h2.6V333.1z"/>
		</g>
		<g>
			<path class="st0" d="M612.2,377.6l2.4,7.7c1.2,0.5,2.6,1,4.2,1.3c1.6,0.3,3,0.5,4.1,0.5c1.6,0,3-0.3,4.3-0.8
				c1.3-0.5,2.4-1.2,3.2-2.1c0.8-0.8,1.5-1.8,1.9-2.8c0.4-1.1,0.7-2.1,0.7-3.1c0-2.1-0.7-3.8-2.1-5.2c-1.4-1.4-3.7-3.2-7-5.4
				c-3.3-2.2-5.7-4.1-7.2-5.5c-1.3-1.3-2.2-2.6-2.8-4c-0.6-1.3-0.9-2.8-0.9-4.4c0-1.8,0.5-3.6,1.5-5.4c1-1.8,2.5-3.3,4.5-4.4
				c2-1.2,4.6-1.8,7.5-1.8c1.4,0,2.8,0.1,4.3,0.2c1.5,0.1,2.6,0.2,3.2,0.2c0.5,0,1,0,1.4,0c0.4,0,0.8,0,1-0.1c0.3,0,0.5-0.1,0.8-0.1
				l0.2,10.7H637l-2-7.2c-2.9-1.3-5.4-1.9-7.6-1.9c-1.8,0-3.4,0.3-4.8,1c-1.4,0.7-2.5,1.6-3.3,2.8c-0.8,1.2-1.2,2.5-1.2,4
				c0,1.5,0.5,3,1.6,4.2c1.1,1.3,2.5,2.5,4.4,3.8c1.8,1.2,3.8,2.5,5.9,3.9c2.1,1.4,3.8,2.7,5.1,4c2.5,2.5,3.7,5.4,3.7,8.6
				c0,1.8-0.5,3.7-1.4,5.7c-1,2-2.6,3.6-4.9,5c-2.3,1.4-5.2,2-8.8,2c-1.3,0-2.8-0.1-4.6-0.2c-1.8-0.1-3.2-0.2-4-0.2
				c-0.4,0-0.7,0-0.9,0c-0.2,0-0.6,0.1-1,0.1c-0.5,0-0.7,0.1-0.8,0.1l-0.5-11H612.2z M627.5,342.8h-1c-2.3,0-4.4,0.5-6.4,1.4
				c-1.9,0.9-3.5,2.2-4.6,3.9c-1.1,1.7-1.7,3.6-1.7,5.7c0,2.7,1.2,5.1,3.5,7.5c1,1,2,1.8,2.9,2.5c0.9,0.7,2.2,1.6,4,2.8
				c1.8,1.2,3.2,2.2,4.3,3c1.1,0.8,2,1.5,2.6,2.2c1.9,1.9,2.8,4,2.8,6.3c0,1.6-0.4,3.1-1.3,4.6c-0.9,1.5-2.1,2.7-3.8,3.6
				c-1.6,0.9-3.6,1.4-5.8,1.4v0.3c2.5,0.1,4.8-0.4,6.8-1.3c2-1,3.5-2.3,4.6-3.9c1.1-1.6,1.6-3.3,1.6-5c0-1.5-0.2-2.8-0.7-4
				c-0.5-1.2-1.4-2.5-2.6-3.7c-0.7-0.7-2-1.7-3.9-3.1c-1.9-1.3-3.8-2.6-5.8-3.9c-1.9-1.3-3.4-2.4-4.3-3.3c-2.2-2.2-3.3-4.6-3.3-7.2
				c0-2.3,1-4.4,3-6.4c2-2,5-3,9-3.1V342.8z"/>
		</g>
		<g>
			<path class="st0" d="M631.2,334h27.4v0.4l-10,1.3c-0.3,1.4-0.5,3.8-0.7,7.3c-0.2,3.5-0.3,6.5-0.3,8.9c0,2.1,0.1,4.7,0.2,7.8
				c3.7,0.7,9.2,1.1,16.5,1.1c3.6,0,7.1-0.1,10.2-0.2c3.2-0.2,6.1-0.4,8.7-0.8c0.2-2.4,0.3-5.4,0.3-8.7c0-2-0.1-4-0.2-6
				c-0.1-2-0.2-3.6-0.4-4.9c-0.1-1.2-0.3-2.7-0.5-4.4l-10-1.2V334H700v0.4l-7.7,1.2c-0.4,1.9-0.7,5-0.9,9.4
				c-0.2,4.4-0.3,8.7-0.3,12.8v12.6c0,7.6,0.4,13.2,1.2,17l7.8,1.3v0.4h-27.5v-0.4l9.8-1.3c0.7-4.3,1.1-9,1.2-14.1
				c0.1-1.3,0.1-2.9,0-4.8c-0.1-1.9-0.2-3.8-0.3-5.9h-35.6c-0.1,1.9-0.2,4.8-0.2,8.9c0,2.4,0.1,5.2,0.2,8.3c0.2,3.2,0.4,5.7,0.8,7.5
				l9.9,1.3v0.4h-27.5v-0.4l7.6-1.3c0.2-1,0.4-2.8,0.6-5.4c0.2-2.6,0.4-5.5,0.5-8.8c0.1-3.3,0.2-6,0.2-8.2v-13.9c0-0.4,0-1.7-0.1-4
				c-0.1-2.2-0.2-4.5-0.4-6.7c-0.2-2.2-0.4-3.8-0.6-4.9l-7.7-1.2V334z M641.1,335.5v52.2h2.6v-52.2H641.1z M684.7,335.4v52.3h2.6
				v-52.3H684.7z"/>
		</g>
	</g>
	<g>
		<polygon class="st0" points="756,448.1 752.1,448.1 752.1,298.5 602.6,298.5 602.6,294.7 756,294.7 		"/>
	</g>
	<g>
		<polygon class="st0" points="735.4,427.4 731.5,427.4 731.5,277.9 582,277.9 582,274 735.4,274 		"/>
	</g>
	<g>
		<polygon class="st0" points="682,450 528.6,450 528.6,296.6 532.5,296.6 532.5,446.1 682,446.1 		"/>
	</g>
	<g>
		<polygon class="st0" points="661.4,429.3 508,429.3 508,275.9 511.9,275.9 511.9,425.5 661.4,425.5 		"/>
	</g>
	<text transform="matrix(1 0 0 1 567.375 412.7236)" class="st0 st1 st2 st3">hotel</text>
</g>
</svg>
